<svg xmlns="http://www.w3.org/2000/svg" xmlns:xlink="http://www.w3.org/1999/xlink" width="2000" zoomAndPan="magnify" viewBox="0 0 1500 1499.999933" height="2000" preserveAspectRatio="xMidYMid meet" version="1.0"><path fill="#212223" d="M 1226.628906 1264.457031 C 1203.074219 1256.933594 1178.707031 1251.757812 1154.679688 1245.6875 C 1110.136719 1234.574219 1064.136719 1227.050781 1029.378906 1192.59375 C 984.320312 1147.875 939.089844 1103.289062 893.777344 1058.785156 C 885.011719 1050.148438 886.292969 1045.445312 898.136719 1042.328125 C 913.269531 1038.4375 928.273438 1033.945312 943.324219 1029.542969 C 998.34375 1013.339844 1051.996094 994.488281 1097.351562 957.507812 C 1266.941406 819.253906 1306.230469 565.320312 1229.023438 411.375 C 1223.335938 400.046875 1217.90625 388.675781 1212.523438 377.175781 C 1197.6875 356.910156 1201.492188 345.070312 1168.148438 291.886719 C 1141.171875 248.796875 1116.761719 210.746094 1071.148438 185.652344 C 1044.46875 170.949219 1018.949219 165.347656 1000.78125 162.996094 C 999.582031 162.824219 998.429688 162.652344 997.273438 162.527344 C 888.21875 149.914062 790.535156 202.15625 749.835938 301.335938 C 732.691406 343.230469 707.511719 371.703125 672.714844 396.710938 C 644.371094 417.0625 618.164062 440.53125 591.488281 463.101562 C 585.035156 468.617188 576.097656 472.894531 574.644531 483.621094 C 587.085938 486.617188 596.320312 479.21875 606.238281 475.328125 C 652.449219 457.160156 698.277344 438.050781 746.800781 426.082031 C 787.285156 416.078125 818.578125 430.613281 847.050781 457.332031 C 857.738281 467.335938 858.761719 473.320312 844.65625 481.613281 C 773.175781 523.550781 715.59375 581.90625 659.203125 641.5 C 577.550781 727.769531 521.035156 830.113281 466.273438 933.570312 C 466.273438 933.65625 466.230469 933.699219 466.230469 933.785156 C 407.707031 1058.484375 349.265625 1183.1875 290.742188 1307.847656 C 290.65625 1307.335938 290.570312 1306.863281 290.484375 1306.351562 C 290.226562 1306.949219 289.972656 1307.546875 289.714844 1308.148438 C 285.054688 1318.964844 277.488281 1331.617188 290.355469 1340.464844 C 304.25 1350.042969 316.902344 1342.175781 326.609375 1331.019531 C 331.910156 1324.820312 336.226562 1317.550781 340.03125 1310.242188 C 351.316406 1288.910156 365.9375 1270.527344 383.167969 1253.382812 C 470.25 1166.558594 576.867188 1118.550781 695.628906 1094.140625 C 704.648438 1092.300781 713.414062 1089.351562 722.304688 1094.738281 C 773.007812 1125.644531 823.410156 1157.066406 870.902344 1196.011719 C 834.351562 1199.390625 798.1875 1198.621094 761.976562 1199.5625 C 710.546875 1200.972656 658.605469 1199.089844 608.375 1213.285156 C 592.601562 1217.730469 574.816406 1220.296875 563.316406 1239.148438 C 810.371094 1214.738281 1050.625 1227.304688 1288.019531 1318.921875 C 1271.558594 1288.910156 1252.023438 1272.492188 1226.714844 1264.371094 Z M 845.808594 240.074219 C 874.324219 208.953125 920.496094 194.460938 976.15625 198.179688 C 932.25 205.875 888.859375 215.109375 845.808594 240.074219 Z M 898.992188 317.921875 C 899.589844 330.960938 890.824219 337.375 878.515625 339.683594 C 865.945312 337.757812 858.59375 330.960938 858.71875 317.753906 C 858.761719 305.738281 865.390625 298.300781 877.058594 298.042969 C 889.671875 297.703125 898.394531 305.140625 898.992188 317.964844 Z M 957.6875 595.285156 C 868.722656 622.261719 803.101562 684.675781 733.292969 740.9375 C 795.40625 672.75 858.675781 606.230469 957.6875 595.285156 Z M 494.660156 1102.648438 C 653.648438 1007.226562 794.851562 884.835938 953.96875 788.6875 C 802.761719 895.734375 662.199219 1018.171875 494.660156 1102.648438 Z M 891.511719 1158.308594 C 860.003906 1137.789062 829.265625 1116.070312 798.441406 1094.4375 C 791.988281 1089.90625 782.027344 1085.546875 784.121094 1076.140625 C 786.300781 1066.480469 797.886719 1068.917969 805.195312 1066.09375 C 828.964844 1056.648438 846.964844 1062.246094 865.21875 1082.253906 C 899.164062 1119.320312 936.695312 1153.09375 972.734375 1188.234375 C 938.835938 1189.773438 915.152344 1173.699219 891.511719 1158.308594 Z M 891.511719 1158.308594 " fill-opacity="1" fill-rule="nonzero"/></svg>